<?xml version="1.0" standalone="no"?><!DOCTYPE svg PUBLIC "-//W3C//DTD SVG 1.1//EN" "http://www.w3.org/Graphics/SVG/1.1/DTD/svg11.dtd"><svg t="1775877902034" class="icon" viewBox="0 0 1024 1024" version="1.1" xmlns="http://www.w3.org/2000/svg" p-id="6728" xmlns:xlink="http://www.w3.org/1999/xlink" width="200" height="200"><path d="M899.6864 443.0336a379.4432 379.4432 0 0 0-758.8352 0c0 191.3344 200.4992 390.2976 341.0944 500.6336a66.8672 66.8672 0 0 0 79.0528 2.8672c161.8944-110.6432 338.688-310.3232 338.688-503.5008z" fill="#FFDF99" p-id="6729"></path><path d="M520.2944 443.0336m-379.392 0a379.392 379.392 0 1 0 758.784 0 379.392 379.392 0 1 0-758.784 0Z" fill="#FF5D50" p-id="6730"></path><path d="M520.2944 443.0336m-214.9888 0a214.9888 214.9888 0 1 0 429.9776 0 214.9888 214.9888 0 1 0-429.9776 0Z" fill="#FFDF99" p-id="6731"></path></svg>